<?xml version="1.0" encoding="UTF-8" standalone="no"?>
<svg
   xmlns:dc="http://purl.org/dc/elements/1.1/"
   xmlns:cc="http://creativecommons.org/ns#"
   xmlns:rdf="http://www.w3.org/1999/02/22-rdf-syntax-ns#"
   xmlns:svg="http://www.w3.org/2000/svg"
   xmlns="http://www.w3.org/2000/svg"
   xmlns:xlink="http://www.w3.org/1999/xlink"
   xmlns:sodipodi="http://sodipodi.sourceforge.net/DTD/sodipodi-0.dtd"
   xmlns:inkscape="http://www.inkscape.org/namespaces/inkscape"
   width="2e3"
   height="1200"
   version="1.1"
   id="svg135"
   sodipodi:docname="banner.svg"
   inkscape:version="1.0.2 (e86c870879, 2021-01-15)">
  <metadata
     id="metadata139">
    <rdf:RDF>
      <cc:Work
         rdf:about="">
        <dc:format>image/svg+xml</dc:format>
        <dc:type
           rdf:resource="http://purl.org/dc/dcmitype/StillImage" />
        <dc:title></dc:title>
      </cc:Work>
    </rdf:RDF>
  </metadata>
  <sodipodi:namedview
     pagecolor="#ffffff"
     bordercolor="#666666"
     borderopacity="1"
     objecttolerance="10"
     gridtolerance="10"
     guidetolerance="10"
     inkscape:pageopacity="0"
     inkscape:pageshadow="2"
     inkscape:window-width="1316"
     inkscape:window-height="743"
     id="namedview137"
     showgrid="false"
     inkscape:zoom="0.2799099"
     inkscape:cx="1358.5898"
     inkscape:cy="600"
     inkscape:window-x="50"
     inkscape:window-y="0"
     inkscape:window-maximized="1"
     inkscape:current-layer="svg135" />
  <defs
     id="defs11">
    <linearGradient
       id="a">
      <stop
         stop-color="#97d6d2"
         offset="0"
         id="stop2" />
      <stop
         stop-color="#4d9182"
         offset="1"
         id="stop4" />
    </linearGradient>
    <linearGradient
       id="b"
       x1="10%"
       x2="90%"
       y1="10%"
       y2="90%"
       xlink:href="#a" />
    <linearGradient
       id="c"
       x1="90%"
       x2="10%"
       y1="90%"
       y2="10%"
       xlink:href="#a" />
    <style
       type="text/css"
       id="style9" />
  </defs>
  <rect
     width="100%"
     height="100%"
     x="0"
     y="0"
     fill="#203050"
     id="rect13" />
  <!-- start of logo.svg -->
  <g
     transform="translate(600,-70)"
     id="g23">
    <!-- 2000/2 - 460/2 - 170 = 1000 - 230 - 170 = 1000 - 400 = 600 -->
    <path
       d="m220 170h360c27.7 0 50 22.3 50 50v360c0 27.7-22.3 50-50 50h-360c-27.7 0-50-22.3-50-50v-360c0-27.7 22.3-50 50-50z"
       fill="url(#b)"
       id="path13" />
    <path
       d="m250 210h300c22.16 0 40 17.84 40 40v300c0 22.16-17.84 40-40 40h-300c-22.16 0-40-17.84-40-40v-300c0-22.16 17.84-40 40-40z"
       fill="url(#c)"
       id="path15" />
    <g
       fill="#203050"
       aria-label="$_"
       id="g21">
      <path
         d="m292.1 514.6 2.4-30.3q-18.3-0.9-34.2-6.3-15.6-5.7-27.9-15.9l11.7-18q10.5 8.4 23.1 13.2 12.9 4.5 27.6 5.4v-58.8l-11.4-1.5q-22.8-3-34.2-14.7-11.1-11.7-11.1-30.6 0-21.9 15-35.1t41.4-15l-2.4-30.6h22.8l-2.4 30.6q14.4 1.2 27.3 5.4 13.2 3.9 24.3 11.7l-10.8 18.6q-9.3-6-19.5-9.6-10.2-3.9-21.6-4.8v56.4l12 1.5q23.1 3 34.2 14.7t11.1 30.6q0 22.5-14.7 36.3-14.7 13.5-42.3 15.9l2.4 30.9zm2.7-132.3v-54.3q-16.5 1.2-25.5 8.7-8.7 7.2-8.7 19.5 0 11.1 6.9 17.4t22.2 8.1zm17.4 80.1q34.8-3.3 34.8-30 0-11.1-7.2-17.4-6.9-6.3-22.2-8.1l-5.4-0.6z"
         id="path17" />
      <path
         d="m389 531.4v-19.8h174v19.8z"
         id="path19" />
    </g>
  </g>
  <!-- end of logo.svg -->
  <g
     fill="#203050"
     font-family="'Sometype Mono', monospace"
     id="g133"
     style="fill:#7ebfb7;fill-opacity:1">
    <g
       aria-label="tldr-pages"
       id="g45"
       style="fill:#7ebfb7;fill-opacity:1">
      <path
         d="m 291.6,853.36 q -51.52,0 -51.52,-51.24 V 746.4 h -38.92 v -29.68 h 38.92 v -37.8 l 33.04,-14.28 v 52.08 h 50.4 v 29.68 h -50.4 v 50.68 q 0,14.28 5.32,20.16 5.6,5.88 19.04,5.88 16.52,0 31.92,-9.52 l 8.4,28 q -20.16,11.76 -46.2,11.76 z"
         id="path25"
         style="fill:#7ebfb7;fill-opacity:1" />
      <path
         d="m 459.88,853.36 q -51.52,0 -51.52,-51.24 V 681.16 H 356.84 V 651.2 h 84.56 v 145.88 q 0,14.28 5.32,20.16 5.6,5.88 19.04,5.88 16.52,0 31.92,-9.52 l 8.4,28 q -20.16,11.76 -46.2,11.76 z"
         id="path27"
         style="fill:#7ebfb7;fill-opacity:1" />
      <path
         d="m 584.48,853.36 q -26.32,0 -42,-18.76 -15.4,-19.04 -15.4,-51.24 0,-32.2 15.4,-50.96 15.68,-19.04 42,-19.04 9.24,0 18.2,2.8 9.24,2.52 18.2,8.12 V 651.2 h 33.04 V 850 h -24.36 l -2.8,-11.2 q -20.72,14.56 -42.28,14.56 z m 8.4,-30.24 q 14.28,0 28,-7.56 v -64.4 q -13.72,-7.56 -28,-7.56 -32.48,0 -32.48,39.76 0,39.76 32.48,39.76 z"
         id="path29"
         style="fill:#7ebfb7;fill-opacity:1" />
      <path
         d="M 705.72,850 V 716.72 h 25.76 l 3.36,18.48 q 10.36,-11.48 22.4,-16.52 12.04,-5.32 27.16,-5.32 20.44,0 35.28,10.64 l -12.32,28.56 q -6.16,-4.48 -12.6,-6.44 -6.16,-2.24 -13.44,-2.24 -23.8,0 -42.56,22.96 V 850 Z"
         id="path31"
         style="fill:#7ebfb7;fill-opacity:1" />
      <path
         d="M 862.8,783.92 V 760.4 h 112 v 23.52 z"
         id="path33"
         style="fill:#7ebfb7;fill-opacity:1" />
      <path
         d="M 1021.3,908.8 V 716.72 h 24.36 l 2.8,11.2 q 20.72,-14.56 42.28,-14.56 26.32,0 41.72,19.04 15.68,18.76 15.68,50.96 0,32.2 -15.68,51.24 -15.4,18.76 -41.72,18.76 -9.24,0 -18.48,-2.8 -8.96,-2.52 -17.92,-8.12 v 66.36 z m 61.04,-85.68 q 32.48,0 32.48,-39.76 0,-39.76 -32.48,-39.76 -14,0 -28,7.56 v 64.4 q 14,7.56 28,7.56 z"
         id="path35"
         style="fill:#7ebfb7;fill-opacity:1" />
      <path
         d="m 1229.3,853.36 q -24.36,0 -38.08,-11.2 -13.44,-11.48 -13.44,-31.92 0,-19.6 12.88,-29.96 13.16,-10.36 37.8,-10.36 h 41.72 v -2.52 q 0,-14 -6.72,-19.88 -6.72,-6.16 -22.4,-6.16 -24.64,0 -45.92,12.32 l -9.8,-26.6 q 26.04,-13.72 59.36,-13.72 30.24,0 44.24,12.6 14.28,12.6 14.28,39.48 V 850 h -24.36 l -2.8,-11.48 q -10.92,7.84 -22.4,11.48 -11.2,3.36 -24.36,3.36 z m 7,-28 q 19.04,0 33.88,-8.4 v -22.12 h -38.64 q -10.64,0 -15.4,3.64 -4.76,3.36 -4.76,10.64 0,8.12 5.88,12.32 6.16,3.92 19.04,3.92 z"
         id="path37"
         style="fill:#7ebfb7;fill-opacity:1" />
      <path
         d="m 1401,912.16 q -15.12,0 -29.12,-3.64 -13.72,-3.36 -27.16,-11.2 l 10.64,-27.16 q 9.8,5.88 21,8.68 11.2,3.08 22.4,3.08 17.64,0 25.76,-7.28 8.4,-7 8.4,-21.56 v -13.44 q -8.96,5.6 -18.2,8.4 -8.96,2.52 -18.2,2.52 -17.36,0 -30.52,-8.68 -12.88,-8.68 -19.88,-24.08 -7,-15.4 -7,-35.84 0,-20.44 7,-35.84 7,-15.4 19.88,-24.08 13.16,-8.68 30.52,-8.68 21.56,0 42.28,14.56 l 2.8,-11.2 h 24.36 v 138.6 q 0,27.72 -16.8,42.28 -16.52,14.56 -48.16,14.56 z m 3.92,-91.84 q 14.28,0 28,-7.56 v -61.6 q -13.72,-7.56 -28,-7.56 -16.24,0 -24.36,10.08 -8.12,9.8 -8.12,28.28 0,18.48 8.12,28.56 8.12,9.8 24.36,9.8 z"
         id="path39"
         style="fill:#7ebfb7;fill-opacity:1" />
      <path
         d="m 1576,853.36 q -34.72,0 -54.6,-18.76 -19.88,-18.76 -19.88,-51.24 0,-21 8.68,-36.68 8.68,-15.68 24.08,-24.36 15.4,-8.96 35.84,-8.96 19.88,0 34.44,8.4 14.84,8.12 22.96,22.96 8.12,14.84 8.12,34.72 0,3.64 -0.28,7.56 -0.28,3.64 -1.12,7.84 h -99.12 q 5.32,30.52 41.16,30.52 21,0 41.16,-12.88 l 12.32,24.36 q -12.88,8.68 -25.76,12.6 -12.88,3.92 -28,3.92 z m -40.6,-83.44 h 67.76 q -4.76,-28.56 -33.32,-28.56 -28.28,0 -34.44,28.56 z"
         id="path41"
         style="fill:#7ebfb7;fill-opacity:1" />
      <path
         d="m 1729.7,853.36 q -37.52,0 -64.12,-16.52 l 12.04,-25.76 q 10.92,7 24.36,10.64 13.72,3.64 28.56,3.64 28.84,0 28.84,-13.72 0,-5.6 -3.08,-8.12 -3.08,-2.52 -11.2,-3.36 l -30.8,-3.64 q -21.28,-2.52 -31.64,-11.76 -10.08,-9.52 -10.08,-27.16 0,-21.28 15.12,-32.76 15.12,-11.48 43.96,-11.48 31.36,0 57.4,13.44 l -10.64,26.32 q -20.44,-11.76 -47.32,-11.76 -25.48,0 -25.48,13.44 0,5.32 3.08,7.84 3.36,2.52 11.2,3.36 l 30.8,3.64 q 21.28,2.52 31.36,12.04 10.36,9.24 10.36,27.16 0,21.28 -16.24,33.04 -15.96,11.48 -46.48,11.48 z"
         id="path43"
         style="fill:#7ebfb7;fill-opacity:1" />
    </g>
    <g
       stroke-width="15.359"
       aria-label="COLLABORATIVE CHEATSHEETS FOR CONSOLE COMMANDS"
       id="g131"
       style="fill:#7ebfb7;fill-opacity:1">
      <path
         d="m 200.4,1069.9 q -7.9908,0 -12.232,-5.2861 -4.1798,-5.3477 -4.1798,-15.428 0,-10.081 4.1798,-15.367 4.2412,-5.3476 12.232,-5.3476 3.3192,0 5.9623,0.9835 2.7046,0.9834 5.2247,3.1348 l -2.9504,4.4871 q -3.688,-3.2578 -8.1752,-3.2578 -10.695,0 -10.695,15.367 0,15.367 10.695,15.367 2.5816,0 4.733,-0.922 2.1514,-0.9835 4.3027,-3.1963 l 3.2578,4.2412 q -2.766,2.766 -5.7165,3.9954 -2.9504,1.2293 -6.6385,1.2293 z"
         id="path47"
         style="fill:#7ebfb7;fill-opacity:1" />
      <path
         d="m 233.6,1069.9 q -7.499,0 -11.371,-5.2247 -3.811,-5.2862 -3.811,-15.49 0,-10.265 3.811,-15.49 3.8724,-5.2247 11.371,-5.2247 7.4986,0 11.31,5.2247 3.8724,5.2247 3.8724,15.49 0,10.204 -3.8724,15.49 -3.811,5.2247 -11.31,5.2247 z m 0,-5.3476 q 9.4045,0 9.4045,-15.367 0,-15.367 -9.4045,-15.367 -9.4045,0 -9.4045,15.367 0,15.367 9.4045,15.367 z"
         id="path49"
         style="fill:#7ebfb7;fill-opacity:1" />
      <path
         d="m 258,1069.1 v -39.954 h 5.655 v 34.668 h 19.608 v 5.2862 z"
         id="path51"
         style="fill:#7ebfb7;fill-opacity:1" />
      <path
         d="m 293.65,1069.1 v -39.954 h 5.655 v 34.668 h 19.608 v 5.2862 z"
         id="path53"
         style="fill:#7ebfb7;fill-opacity:1" />
      <path
         d="m 324.14,1069.1 13.277,-39.954 h 6.2697 l 13.277,39.954 h -5.9623 l -3.3192,-10.204 h -14.568 l -3.3192,10.204 z m 10.634,-15.49 h 11.249 l -5.5935,-17.457 z"
         id="path55"
         style="fill:#7ebfb7;fill-opacity:1" />
      <path
         d="m 363.41,1069.1 v -39.954 h 14.076 q 6.2082,0 9.1586,2.5816 3.0119,2.5202 3.0119,7.622 0,3.4421 -1.3523,5.5935 -1.3523,2.1513 -4.2412,3.1963 v 0.1229 q 6.6999,1.844 6.6999,9.7118 0,11.126 -12.478,11.126 z m 5.655,-23.173 h 7.1302 q 4.2412,0 5.9623,-1.3523 1.7826,-1.4138 1.7826,-4.5486 0,-2.9504 -1.5982,-4.2412 -1.5367,-1.3523 -5.3476,-1.3523 h -7.9293 z m 0,17.887 h 8.6669 q 3.811,0 5.532,-1.4752 1.7211,-1.4752 1.7211,-4.6715 0,-3.3807 -1.9055,-4.9174 -1.9055,-1.5981 -6.1467,-1.5981 h -7.8678 z"
         id="path57"
         style="fill:#7ebfb7;fill-opacity:1" />
      <path
         d="m 411.85,1069.9 q -7.499,0 -11.371,-5.2247 -3.811,-5.2862 -3.811,-15.49 0,-10.265 3.811,-15.49 3.8724,-5.2247 11.371,-5.2247 7.4986,0 11.31,5.2247 3.8724,5.2247 3.8724,15.49 0,10.204 -3.8724,15.49 -3.811,5.2247 -11.31,5.2247 z m 0,-5.3476 q 9.4045,0 9.4045,-15.367 0,-15.367 -9.4045,-15.367 -9.4045,0 -9.4045,15.367 0,15.367 9.4045,15.367 z"
         id="path59"
         style="fill:#7ebfb7;fill-opacity:1" />
      <path
         d="m 434.65,1069.1 v -39.954 h 14.322 q 6.0853,0 9.2201,2.9504 3.1963,2.889 3.1963,8.4825 0,9.466 -8.7284,11.126 l 10.265,17.395 h -6.577 l -9.8962,-17.026 h -6.1467 v 17.026 z m 5.655,-22.313 h 8.0522 q 3.8724,0 5.5321,-1.4137 1.7211,-1.4753 1.7211,-4.7945 0,-3.2578 -1.7211,-4.6715 -1.6596,-1.4752 -5.5321,-1.4752 h -8.0522 z"
         id="path61"
         style="fill:#7ebfb7;fill-opacity:1" />
      <path
         d="m 466.74,1069.1 13.277,-39.954 h 6.2697 l 13.277,39.954 h -5.9623 l -3.3192,-10.204 h -14.568 l -3.3192,10.204 z m 10.634,-15.49 h 11.249 l -5.5935,-17.457 z"
         id="path63"
         style="fill:#7ebfb7;fill-opacity:1" />
      <path
         d="m 515.98,1069.1 v -34.668 h -12.908 v -5.2862 h 31.471 v 5.2862 h -12.908 v 34.668 z"
         id="path65"
         style="fill:#7ebfb7;fill-opacity:1" />
      <path
         d="m 541.42,1069.1 v -5.2862 h 10.204 v -29.381 H 541.42 v -5.2862 h 26.062 v 5.2862 h -10.204 v 29.381 h 10.204 v 5.2862 z"
         id="path67"
         style="fill:#7ebfb7;fill-opacity:1" />
      <path
         d="m 586.97,1069.1 -12.662,-39.954 h 5.9623 l 9.9577,32.27 10.019,-32.27 h 5.655 L 593.24,1069.1 Z"
         id="path69"
         style="fill:#7ebfb7;fill-opacity:1" />
      <path
         d="m 614.2,1069.1 v -39.954 h 25.325 v 5.2862 h -19.67 v 11.679 h 16.719 v 5.2861 h -16.719 v 12.416 h 19.67 v 5.2862 z"
         id="path71"
         style="fill:#7ebfb7;fill-opacity:1" />
      <path
         d="m 699.52,1069.9 q -7.9908,0 -12.232,-5.2861 -4.1798,-5.3477 -4.1798,-15.428 0,-10.081 4.1798,-15.367 4.2412,-5.3476 12.232,-5.3476 3.3192,0 5.9623,0.9835 2.7046,0.9834 5.2247,3.1348 l -2.9504,4.4871 q -3.688,-3.2578 -8.1752,-3.2578 -10.695,0 -10.695,15.367 0,15.367 10.695,15.367 2.5816,0 4.733,-0.922 2.1514,-0.9835 4.3027,-3.1963 l 3.2578,4.2412 q -2.766,2.766 -5.7165,3.9954 -2.9504,1.2293 -6.6385,1.2293 z"
         id="path73"
         style="fill:#7ebfb7;fill-opacity:1" />
      <path
         d="m 719.25,1069.1 v -39.954 h 5.655 v 16.965 h 15.613 v -16.965 h 5.655 v 39.954 h -5.655 v -17.703 h -15.613 v 17.703 z"
         id="path75"
         style="fill:#7ebfb7;fill-opacity:1" />
      <path
         d="m 756.8,1069.1 v -39.954 h 25.325 v 5.2862 h -19.67 v 11.679 h 16.719 v 5.2861 h -16.719 v 12.416 h 19.67 v 5.2862 z"
         id="path77"
         style="fill:#7ebfb7;fill-opacity:1" />
      <path
         d="m 787.6,1069.1 13.277,-39.954 h 6.2697 l 13.277,39.954 h -5.9623 l -3.3192,-10.204 h -14.568 l -3.3192,10.204 z m 10.634,-15.49 h 11.249 l -5.5935,-17.457 z"
         id="path79"
         style="fill:#7ebfb7;fill-opacity:1" />
      <path
         d="m 836.84,1069.1 v -34.668 h -12.908 v -5.2862 h 31.471 v 5.2862 h -12.908 v 34.668 z"
         id="path81"
         style="fill:#7ebfb7;fill-opacity:1" />
      <path
         d="m 874.82,1069.9 q -8.544,0 -14.199,-5.1017 l 3.0119,-4.5486 q 4.5486,4.3027 11.371,4.3027 4.1183,0 6.2697,-1.6596 2.2128,-1.7211 2.2128,-4.9789 0,-2.4587 -1.2908,-3.7495 -1.2294,-1.3523 -4.0568,-2.0284 l -6.4541,-1.4752 q -4.8559,-1.1679 -7.1917,-3.6881 -2.2743,-2.5816 -2.2743,-6.9458 0,-5.3476 3.6266,-8.421 3.688,-3.1348 10.081,-3.1348 7.1917,0 12.601,4.1183 l -2.766,4.61 q -4.2412,-3.3807 -9.8962,-3.3807 -3.811,0 -5.9009,1.5982 -2.0284,1.5367 -2.0284,4.3642 0,2.2743 1.2294,3.5036 1.2908,1.2293 4.1798,1.9055 l 6.4541,1.5367 q 4.7944,1.1678 7.0687,3.7495 2.3358,2.5816 2.3358,7.1916 0,5.778 -3.7495,9.0357 -3.7495,3.1963 -10.634,3.1963 z"
         id="path83"
         style="fill:#7ebfb7;fill-opacity:1" />
      <path
         d="m 897.5,1069.1 v -39.954 h 5.655 v 16.965 h 15.613 v -16.965 h 5.655 v 39.954 h -5.655 v -17.703 h -15.613 v 17.703 z"
         id="path85"
         style="fill:#7ebfb7;fill-opacity:1" />
      <path
         d="m 935.06,1069.1 v -39.954 h 25.325 v 5.2862 h -19.67 v 11.679 h 16.719 v 5.2861 h -16.719 v 12.416 h 19.67 v 5.2862 z"
         id="path87"
         style="fill:#7ebfb7;fill-opacity:1" />
      <path
         d="m 970.71,1069.1 v -39.954 h 25.325 v 5.2862 h -19.67 v 11.679 h 16.719 v 5.2861 h -16.719 v 12.416 h 19.67 v 5.2862 z"
         id="path89"
         style="fill:#7ebfb7;fill-opacity:1" />
      <path
         d="m 1015.1,1069.1 v -34.668 h -12.908 v -5.2862 h 31.471 v 5.2862 h -12.908 v 34.668 z"
         id="path91"
         style="fill:#7ebfb7;fill-opacity:1" />
      <path
         d="m 1053.1,1069.9 q -8.544,0 -14.199,-5.1017 l 3.0119,-4.5486 q 4.5486,4.3027 11.372,4.3027 4.1183,0 6.2696,-1.6596 2.2128,-1.7211 2.2128,-4.9789 0,-2.4587 -1.2908,-3.7495 -1.2293,-1.3523 -4.0568,-2.0284 l -6.4541,-1.4752 q -4.8559,-1.1679 -7.1916,-3.6881 -2.2743,-2.5816 -2.2743,-6.9458 0,-5.3476 3.6265,-8.421 3.6881,-3.1348 10.081,-3.1348 7.1916,0 12.601,4.1183 l -2.7661,4.61 q -4.2412,-3.3807 -9.8962,-3.3807 -3.811,0 -5.9009,1.5982 -2.0284,1.5367 -2.0284,4.3642 0,2.2743 1.2294,3.5036 1.2908,1.2293 4.1797,1.9055 l 6.4541,1.5367 q 4.7945,1.1678 7.0687,3.7495 2.3358,2.5816 2.3358,7.1916 0,5.778 -3.7495,9.0357 -3.7495,3.1963 -10.634,3.1963 z"
         id="path93"
         style="fill:#7ebfb7;fill-opacity:1" />
      <path
         d="m 1113.6,1069.1 v -39.954 h 25.263 v 5.2862 h -19.608 v 12.048 h 16.658 v 5.2247 h -16.658 v 17.395 z"
         id="path95"
         style="fill:#7ebfb7;fill-opacity:1" />
      <path
         d="m 1160.5,1069.9 q -7.499,0 -11.371,-5.2247 -3.811,-5.2862 -3.811,-15.49 0,-10.265 3.811,-15.49 3.8724,-5.2247 11.371,-5.2247 7.4986,0 11.31,5.2247 3.8724,5.2247 3.8724,15.49 0,10.204 -3.8724,15.49 -3.811,5.2247 -11.31,5.2247 z m 0,-5.3476 q 9.4045,0 9.4045,-15.367 0,-15.367 -9.4045,-15.367 -9.4045,0 -9.4045,15.367 0,15.367 9.4045,15.367 z"
         id="path97"
         style="fill:#7ebfb7;fill-opacity:1" />
      <path
         d="m 1183.3,1069.1 v -39.954 h 14.322 q 6.0853,0 9.2201,2.9504 3.1963,2.889 3.1963,8.4825 0,9.466 -8.7283,11.126 l 10.265,17.395 h -6.577 l -9.8962,-17.026 h -6.1468 v 17.026 z m 5.6549,-22.313 h 8.0523 q 3.8724,0 5.532,-1.4137 1.7211,-1.4753 1.7211,-4.7945 0,-3.2578 -1.7211,-4.6715 -1.6596,-1.4752 -5.532,-1.4752 h -8.0523 z"
         id="path99"
         style="fill:#7ebfb7;fill-opacity:1" />
      <path
         d="m 1269.9,1069.9 q -7.9907,0 -12.232,-5.2861 -4.1797,-5.3477 -4.1797,-15.428 0,-10.081 4.1797,-15.367 4.2413,-5.3476 12.232,-5.3476 3.3193,0 5.9624,0.9835 2.7045,0.9834 5.2247,3.1348 l -2.9504,4.4871 q -3.6881,-3.2578 -8.1752,-3.2578 -10.695,0 -10.695,15.367 0,15.367 10.695,15.367 2.5816,0 4.733,-0.922 2.1513,-0.9835 4.3027,-3.1963 l 3.2578,4.2412 q -2.7661,2.766 -5.7165,3.9954 -2.9504,1.2293 -6.6385,1.2293 z"
         id="path101"
         style="fill:#7ebfb7;fill-opacity:1" />
      <path
         d="m 1303.1,1069.9 q -7.499,0 -11.371,-5.2247 -3.811,-5.2862 -3.811,-15.49 0,-10.265 3.811,-15.49 3.8724,-5.2247 11.371,-5.2247 7.4991,0 11.31,5.2247 3.8725,5.2247 3.8725,15.49 0,10.204 -3.8725,15.49 -3.8109,5.2247 -11.31,5.2247 z m 0,-5.3476 q 9.4045,0 9.4045,-15.367 0,-15.367 -9.4045,-15.367 -9.4045,0 -9.4045,15.367 0,15.367 9.4045,15.367 z"
         id="path103"
         style="fill:#7ebfb7;fill-opacity:1" />
      <path
         d="m 1325.3,1069.1 v -39.954 h 6.7614 l 14.937,29.504 v -29.504 h 5.2247 v 39.954 h -5.5935 l -16.104,-31.84 v 31.84 z"
         id="path105"
         style="fill:#7ebfb7;fill-opacity:1" />
      <path
         d="m 1373.9,1069.9 q -8.5439,0 -14.199,-5.1017 l 3.0119,-4.5486 q 4.5485,4.3027 11.371,4.3027 4.1183,0 6.2697,-1.6596 2.2128,-1.7211 2.2128,-4.9789 0,-2.4587 -1.2908,-3.7495 -1.2294,-1.3523 -4.0569,-2.0284 l -6.454,-1.4752 q -4.8559,-1.1679 -7.1917,-3.6881 -2.2743,-2.5816 -2.2743,-6.9458 0,-5.3476 3.6266,-8.421 3.688,-3.1348 10.081,-3.1348 7.1917,0 12.601,4.1183 l -2.766,4.61 q -4.2413,-3.3807 -9.8962,-3.3807 -3.811,0 -5.9009,1.5982 -2.0284,1.5367 -2.0284,4.3642 0,2.2743 1.2293,3.5036 1.2908,1.2293 4.1798,1.9055 l 6.4541,1.5367 q 4.7944,1.1678 7.0687,3.7495 2.3358,2.5816 2.3358,7.1916 0,5.778 -3.7495,9.0357 -3.7496,3.1963 -10.634,3.1963 z"
         id="path107"
         style="fill:#7ebfb7;fill-opacity:1" />
      <path
         d="m 1410.1,1069.9 q -7.499,0 -11.371,-5.2247 -3.811,-5.2862 -3.811,-15.49 0,-10.265 3.811,-15.49 3.8724,-5.2247 11.371,-5.2247 7.4991,0 11.31,5.2247 3.8725,5.2247 3.8725,15.49 0,10.204 -3.8725,15.49 -3.8109,5.2247 -11.31,5.2247 z m 0,-5.3476 q 9.4045,0 9.4045,-15.367 0,-15.367 -9.4045,-15.367 -9.4044,0 -9.4044,15.367 0,15.367 9.4044,15.367 z"
         id="path109"
         style="fill:#7ebfb7;fill-opacity:1" />
      <path
         d="m 1434.5,1069.1 v -39.954 h 5.6549 v 34.668 h 19.608 v 5.2862 z"
         id="path111"
         style="fill:#7ebfb7;fill-opacity:1" />
      <path
         d="m 1469.8,1069.1 v -39.954 h 25.324 v 5.2862 h -19.67 v 11.679 h 16.719 v 5.2861 h -16.719 v 12.416 h 19.67 v 5.2862 z"
         id="path113"
         style="fill:#7ebfb7;fill-opacity:1" />
      <path
         d="m 1555.1,1069.9 q -7.9908,0 -12.232,-5.2861 -4.1798,-5.3477 -4.1798,-15.428 0,-10.081 4.1798,-15.367 4.2412,-5.3476 12.232,-5.3476 3.3192,0 5.9623,0.9835 2.7046,0.9834 5.2247,3.1348 l -2.9504,4.4871 q -3.6881,-3.2578 -8.1752,-3.2578 -10.695,0 -10.695,15.367 0,15.367 10.695,15.367 2.5817,0 4.733,-0.922 2.1514,-0.9835 4.3027,-3.1963 l 3.2578,4.2412 q -2.766,2.766 -5.7165,3.9954 -2.9504,1.2293 -6.6384,1.2293 z"
         id="path115"
         style="fill:#7ebfb7;fill-opacity:1" />
      <path
         d="m 1588.3,1069.9 q -7.499,0 -11.372,-5.2247 -3.8109,-5.2862 -3.8109,-15.49 0,-10.265 3.8109,-15.49 3.8725,-5.2247 11.372,-5.2247 7.4995,0 11.31,5.2247 3.8724,5.2247 3.8724,15.49 0,10.204 -3.8724,15.49 -3.811,5.2247 -11.31,5.2247 z m 0,-5.3476 q 9.4045,0 9.4045,-15.367 0,-15.367 -9.4045,-15.367 -9.4045,0 -9.4045,15.367 0,15.367 9.4045,15.367 z"
         id="path117"
         style="fill:#7ebfb7;fill-opacity:1" />
      <path
         d="m 1610,1069.1 v -39.954 h 7.1302 l 6.8228,22.989 6.7614,-22.989 h 7.3146 v 39.954 h -5.2861 v -32.086 l -7.1303,24.095 h -3.5036 l -7.1302,-24.095 v 32.086 z"
         id="path119"
         style="fill:#7ebfb7;fill-opacity:1" />
      <path
         d="m 1645.6,1069.1 v -39.954 h 7.1302 l 6.8228,22.989 6.7614,-22.989 h 7.3146 v 39.954 h -5.2861 v -32.086 l -7.1302,24.095 h -3.5037 l -7.1302,-24.095 v 32.086 z"
         id="path121"
         style="fill:#7ebfb7;fill-opacity:1" />
      <path
         d="m 1678.9,1069.1 13.277,-39.954 h 6.2696 l 13.277,39.954 h -5.9624 l -3.3192,-10.204 h -14.568 l -3.3193,10.204 z m 10.634,-15.49 h 11.248 l -5.5935,-17.457 z"
         id="path123"
         style="fill:#7ebfb7;fill-opacity:1" />
      <path
         d="m 1717.5,1069.1 v -39.954 h 6.7614 l 14.936,29.504 v -29.504 h 5.2247 v 39.954 h -5.5935 l -16.104,-31.84 v 31.84 z"
         id="path125"
         style="fill:#7ebfb7;fill-opacity:1" />
      <path
         d="m 1753.6,1069.1 v -39.954 h 10.204 q 17.518,0 17.518,19.977 0,19.977 -17.272,19.977 z m 5.6549,-5.2862 h 4.1798 q 6.2697,0 9.1587,-3.5651 2.9504,-3.5651 2.9504,-11.126 0,-7.5605 -2.9504,-11.126 -2.889,-3.5651 -9.1587,-3.5651 h -4.1798 z"
         id="path127"
         style="fill:#7ebfb7;fill-opacity:1" />
      <path
         d="m 1801.7,1069.9 q -8.544,0 -14.199,-5.1017 l 3.0119,-4.5486 q 4.5486,4.3027 11.372,4.3027 4.1183,0 6.2697,-1.6596 2.2128,-1.7211 2.2128,-4.9789 0,-2.4587 -1.2908,-3.7495 -1.2294,-1.3523 -4.0569,-2.0284 l -6.454,-1.4752 q -4.856,-1.1679 -7.1917,-3.6881 -2.2743,-2.5816 -2.2743,-6.9458 0,-5.3476 3.6266,-8.421 3.688,-3.1348 10.081,-3.1348 7.1917,0 12.601,4.1183 l -2.766,4.61 q -4.2413,-3.3807 -9.8963,-3.3807 -3.8109,0 -5.9008,1.5982 -2.0284,1.5367 -2.0284,4.3642 0,2.2743 1.2293,3.5036 1.2908,1.2293 4.1798,1.9055 l 6.454,1.5367 q 4.7945,1.1678 7.0688,3.7495 2.3357,2.5816 2.3357,7.1916 0,5.778 -3.7495,9.0357 -3.7495,3.1963 -10.634,3.1963 z"
         id="path129"
         style="fill:#7ebfb7;fill-opacity:1" />
    </g>
  </g>
</svg>
