<?xml version="1.0" encoding="UTF-8" standalone="no"?>
<svg
   xmlns:dc="http://purl.org/dc/elements/1.1/"
   xmlns:cc="http://creativecommons.org/ns#"
   xmlns:rdf="http://www.w3.org/1999/02/22-rdf-syntax-ns#"
   xmlns:svg="http://www.w3.org/2000/svg"
   xmlns="http://www.w3.org/2000/svg"
   xmlns:xlink="http://www.w3.org/1999/xlink"
   xmlns:sodipodi="http://sodipodi.sourceforge.net/DTD/sodipodi-0.dtd"
   xmlns:inkscape="http://www.inkscape.org/namespaces/inkscape"
   width="2e3"
   height="1200"
   version="1.1"
   id="svg135"
   sodipodi:docname="banner-light.svg"
   inkscape:version="1.0.2 (e86c870879, 2021-01-15)">
  <metadata
     id="metadata139">
    <rdf:RDF>
      <cc:Work
         rdf:about="">
        <dc:format>image/svg+xml</dc:format>
        <dc:type
           rdf:resource="http://purl.org/dc/dcmitype/StillImage" />
        <dc:title></dc:title>
      </cc:Work>
    </rdf:RDF>
  </metadata>
  <sodipodi:namedview
     pagecolor="#ffffff"
     bordercolor="#666666"
     borderopacity="1"
     objecttolerance="10"
     gridtolerance="10"
     guidetolerance="10"
     inkscape:pageopacity="0"
     inkscape:pageshadow="2"
     inkscape:window-width="1316"
     inkscape:window-height="743"
     id="namedview137"
     showgrid="false"
     inkscape:zoom="0.2799099"
     inkscape:cx="1358.5898"
     inkscape:cy="600"
     inkscape:window-x="50"
     inkscape:window-y="0"
     inkscape:window-maximized="1"
     inkscape:current-layer="svg135" />
  <defs
     id="defs11">
    <linearGradient
       id="a">
      <stop
         stop-color="#97d6d2"
         offset="0"
         id="stop2" />
      <stop
         stop-color="#4d9182"
         offset="1"
         id="stop4" />
    </linearGradient>
    <linearGradient
       id="b"
       x1="10%"
       x2="90%"
       y1="10%"
       y2="90%"
       xlink:href="#a" />
    <linearGradient
       id="c"
       x1="90%"
       x2="10%"
       y1="90%"
       y2="10%"
       xlink:href="#a" />
    <style
       type="text/css"
       id="style9" />
  </defs>
  <rect
     width="100%"
     height="100%"
     x="0"
     y="0"
     fill="#203050"
     id="rect13"
     style="fill:#ffffff" />
  <!-- start of logo.svg -->
  <g
     transform="translate(600,-70)"
     id="g23">
    <!-- 2000/2 - 460/2 - 170 = 1000 - 230 - 170 = 1000 - 400 = 600 -->
    <path
       d="m220 170h360c27.7 0 50 22.3 50 50v360c0 27.7-22.3 50-50 50h-360c-27.7 0-50-22.3-50-50v-360c0-27.7 22.3-50 50-50z"
       fill="url(#b)"
       id="path13" />
    <path
       d="m250 210h300c22.16 0 40 17.84 40 40v300c0 22.16-17.84 40-40 40h-300c-22.16 0-40-17.84-40-40v-300c0-22.16 17.84-40 40-40z"
       fill="url(#c)"
       id="path15" />
    <g
       fill="#203050"
       aria-label="$_"
       id="g21">
      <path
         d="m292.1 514.6 2.4-30.3q-18.3-0.9-34.2-6.3-15.6-5.7-27.9-15.9l11.7-18q10.5 8.4 23.1 13.2 12.9 4.5 27.6 5.4v-58.8l-11.4-1.5q-22.8-3-34.2-14.7-11.1-11.7-11.1-30.6 0-21.9 15-35.1t41.4-15l-2.4-30.6h22.8l-2.4 30.6q14.4 1.2 27.3 5.4 13.2 3.9 24.3 11.7l-10.8 18.6q-9.3-6-19.5-9.6-10.2-3.9-21.6-4.8v56.4l12 1.5q23.1 3 34.2 14.7t11.1 30.6q0 22.5-14.7 36.3-14.7 13.5-42.3 15.9l2.4 30.9zm2.7-132.3v-54.3q-16.5 1.2-25.5 8.7-8.7 7.2-8.7 19.5 0 11.1 6.9 17.4t22.2 8.1zm17.4 80.1q34.8-3.3 34.8-30 0-11.1-7.2-17.4-6.9-6.3-22.2-8.1l-5.4-0.6z"
         id="path17" />
      <path
         d="m389 531.4v-19.8h174v19.8z"
         id="path19" />
    </g>
  </g>
  <!-- end of logo.svg -->
  <g
     fill="#203050"
     font-family="'Sometype Mono', monospace"
     id="g133">
    <g
       aria-label="tldr-pages"
       id="g45">
      <path
         d="m291.6 853.36q-51.52 0-51.52-51.24v-55.72h-38.92v-29.68h38.92v-37.8l33.04-14.28v52.08h50.4v29.68h-50.4v50.68q0 14.28 5.32 20.16 5.6 5.88 19.04 5.88 16.52 0 31.92-9.52l8.4 28q-20.16 11.76-46.2 11.76z"
         id="path25" />
      <path
         d="m459.88 853.36q-51.52 0-51.52-51.24v-120.96h-51.52v-29.96h84.56v145.88q0 14.28 5.32 20.16 5.6 5.88 19.04 5.88 16.52 0 31.92-9.52l8.4 28q-20.16 11.76-46.2 11.76z"
         id="path27" />
      <path
         d="m584.48 853.36q-26.32 0-42-18.76-15.4-19.04-15.4-51.24t15.4-50.96q15.68-19.04 42-19.04 9.24 0 18.2 2.8 9.24 2.52 18.2 8.12v-73.08h33.04v198.8h-24.36l-2.8-11.2q-20.72 14.56-42.28 14.56zm8.4-30.24q14.28 0 28-7.56v-64.4q-13.72-7.56-28-7.56-32.48 0-32.48 39.76t32.48 39.76z"
         id="path29" />
      <path
         d="m705.72 850v-133.28h25.76l3.36 18.48q10.36-11.48 22.4-16.52 12.04-5.32 27.16-5.32 20.44 0 35.28 10.64l-12.32 28.56q-6.16-4.48-12.6-6.44-6.16-2.24-13.44-2.24-23.8 0-42.56 22.96v83.16z"
         id="path31" />
      <path
         d="m862.8 783.92v-23.52h112v23.52z"
         id="path33" />
      <path
         d="m1021.3 908.8v-192.08h24.36l2.8 11.2q20.72-14.56 42.28-14.56 26.32 0 41.72 19.04 15.68 18.76 15.68 50.96t-15.68 51.24q-15.4 18.76-41.72 18.76-9.24 0-18.48-2.8-8.96-2.52-17.92-8.12v66.36zm61.04-85.68q32.48 0 32.48-39.76t-32.48-39.76q-14 0-28 7.56v64.4q14 7.56 28 7.56z"
         id="path35" />
      <path
         d="m1229.3 853.36q-24.36 0-38.08-11.2-13.44-11.48-13.44-31.92 0-19.6 12.88-29.96 13.16-10.36 37.8-10.36h41.72v-2.52q0-14-6.72-19.88-6.72-6.16-22.4-6.16-24.64 0-45.92 12.32l-9.8-26.6q26.04-13.72 59.36-13.72 30.24 0 44.24 12.6 14.28 12.6 14.28 39.48v84.56h-24.36l-2.8-11.48q-10.92 7.84-22.4 11.48-11.2 3.36-24.36 3.36zm7-28q19.04 0 33.88-8.4v-22.12h-38.64q-10.64 0-15.4 3.64-4.76 3.36-4.76 10.64 0 8.12 5.88 12.32 6.16 3.92 19.04 3.92z"
         id="path37" />
      <path
         d="m1401 912.16q-15.12 0-29.12-3.64-13.72-3.36-27.16-11.2l10.64-27.16q9.8 5.88 21 8.68 11.2 3.08 22.4 3.08 17.64 0 25.76-7.28 8.4-7 8.4-21.56v-13.44q-8.96 5.6-18.2 8.4-8.96 2.52-18.2 2.52-17.36 0-30.52-8.68-12.88-8.68-19.88-24.08t-7-35.84 7-35.84 19.88-24.08q13.16-8.68 30.52-8.68 21.56 0 42.28 14.56l2.8-11.2h24.36v138.6q0 27.72-16.8 42.28-16.52 14.56-48.16 14.56zm3.92-91.84q14.28 0 28-7.56v-61.6q-13.72-7.56-28-7.56-16.24 0-24.36 10.08-8.12 9.8-8.12 28.28t8.12 28.56q8.12 9.8 24.36 9.8z"
         id="path39" />
      <path
         d="m1576 853.36q-34.72 0-54.6-18.76t-19.88-51.24q0-21 8.68-36.68t24.08-24.36q15.4-8.96 35.84-8.96 19.88 0 34.44 8.4 14.84 8.12 22.96 22.96t8.12 34.72q0 3.64-0.28 7.56-0.28 3.64-1.12 7.84h-99.12q5.32 30.52 41.16 30.52 21 0 41.16-12.88l12.32 24.36q-12.88 8.68-25.76 12.6t-28 3.92zm-40.6-83.44h67.76q-4.76-28.56-33.32-28.56-28.28 0-34.44 28.56z"
         id="path41" />
      <path
         d="m1729.7 853.36q-37.52 0-64.12-16.52l12.04-25.76q10.92 7 24.36 10.64 13.72 3.64 28.56 3.64 28.84 0 28.84-13.72 0-5.6-3.08-8.12t-11.2-3.36l-30.8-3.64q-21.28-2.52-31.64-11.76-10.08-9.52-10.08-27.16 0-21.28 15.12-32.76t43.96-11.48q31.36 0 57.4 13.44l-10.64 26.32q-20.44-11.76-47.32-11.76-25.48 0-25.48 13.44 0 5.32 3.08 7.84 3.36 2.52 11.2 3.36l30.8 3.64q21.28 2.52 31.36 12.04 10.36 9.24 10.36 27.16 0 21.28-16.24 33.04-15.96 11.48-46.48 11.48z"
         id="path43" />
    </g>
    <g
       stroke-width="15.359"
       aria-label="COLLABORATIVE CHEATSHEETS FOR CONSOLE COMMANDS"
       id="g131">
      <path
         d="m200.4 1069.9q-7.9908 0-12.232-5.2861-4.1798-5.3477-4.1798-15.428 0-10.081 4.1798-15.367 4.2412-5.3476 12.232-5.3476 3.3192 0 5.9623 0.9835 2.7046 0.9834 5.2247 3.1348l-2.9504 4.4871q-3.688-3.2578-8.1752-3.2578-10.695 0-10.695 15.367 0 15.367 10.695 15.367 2.5816 0 4.733-0.922 2.1514-0.9835 4.3027-3.1963l3.2578 4.2412q-2.766 2.766-5.7165 3.9954-2.9504 1.2293-6.6385 1.2293z"
         id="path47" />
      <path
         d="m233.6 1069.9q-7.499 0-11.371-5.2247-3.811-5.2862-3.811-15.49 0-10.265 3.811-15.49 3.8724-5.2247 11.371-5.2247t11.31 5.2247q3.8724 5.2247 3.8724 15.49 0 10.204-3.8724 15.49-3.811 5.2247-11.31 5.2247zm0-5.3476q9.4045 0 9.4045-15.367 0-15.367-9.4045-15.367t-9.4045 15.367q0 15.367 9.4045 15.367z"
         id="path49" />
      <path
         d="m258 1069.1v-39.954h5.655v34.668h19.608v5.2862z"
         id="path51" />
      <path
         d="m293.65 1069.1v-39.954h5.655v34.668h19.608v5.2862z"
         id="path53" />
      <path
         d="m324.14 1069.1 13.277-39.954h6.2697l13.277 39.954h-5.9623l-3.3192-10.204h-14.568l-3.3192 10.204zm10.634-15.49h11.249l-5.5935-17.457z"
         id="path55" />
      <path
         d="m363.41 1069.1v-39.954h14.076q6.2082 0 9.1586 2.5816 3.0119 2.5202 3.0119 7.622 0 3.4421-1.3523 5.5935-1.3523 2.1513-4.2412 3.1963v0.1229q6.6999 1.844 6.6999 9.7118 0 11.126-12.478 11.126zm5.655-23.173h7.1302q4.2412 0 5.9623-1.3523 1.7826-1.4138 1.7826-4.5486 0-2.9504-1.5982-4.2412-1.5367-1.3523-5.3476-1.3523h-7.9293zm0 17.887h8.6669q3.811 0 5.532-1.4752 1.7211-1.4752 1.7211-4.6715 0-3.3807-1.9055-4.9174-1.9055-1.5981-6.1467-1.5981h-7.8678z"
         id="path57" />
      <path
         d="m411.85 1069.9q-7.499 0-11.371-5.2247-3.811-5.2862-3.811-15.49 0-10.265 3.811-15.49 3.8724-5.2247 11.371-5.2247t11.31 5.2247q3.8724 5.2247 3.8724 15.49 0 10.204-3.8724 15.49-3.811 5.2247-11.31 5.2247zm0-5.3476q9.4045 0 9.4045-15.367 0-15.367-9.4045-15.367t-9.4045 15.367q0 15.367 9.4045 15.367z"
         id="path59" />
      <path
         d="m434.65 1069.1v-39.954h14.322q6.0853 0 9.2201 2.9504 3.1963 2.889 3.1963 8.4825 0 9.466-8.7284 11.126l10.265 17.395h-6.577l-9.8962-17.026h-6.1467v17.026zm5.655-22.313h8.0522q3.8724 0 5.5321-1.4137 1.7211-1.4753 1.7211-4.7945 0-3.2578-1.7211-4.6715-1.6596-1.4752-5.5321-1.4752h-8.0522z"
         id="path61" />
      <path
         d="m466.74 1069.1 13.277-39.954h6.2697l13.277 39.954h-5.9623l-3.3192-10.204h-14.568l-3.3192 10.204zm10.634-15.49h11.249l-5.5935-17.457z"
         id="path63" />
      <path
         d="m515.98 1069.1v-34.668h-12.908v-5.2862h31.471v5.2862h-12.908v34.668z"
         id="path65" />
      <path
         d="m541.42 1069.1v-5.2862h10.204v-29.381h-10.204v-5.2862h26.062v5.2862h-10.204v29.381h10.204v5.2862z"
         id="path67" />
      <path
         d="m586.97 1069.1-12.662-39.954h5.9623l9.9577 32.27 10.019-32.27h5.655l-12.662 39.954z"
         id="path69" />
      <path
         d="m614.2 1069.1v-39.954h25.325v5.2862h-19.67v11.679h16.719v5.2861h-16.719v12.416h19.67v5.2862z"
         id="path71" />
      <path
         d="m699.52 1069.9q-7.9908 0-12.232-5.2861-4.1798-5.3477-4.1798-15.428 0-10.081 4.1798-15.367 4.2412-5.3476 12.232-5.3476 3.3192 0 5.9623 0.9835 2.7046 0.9834 5.2247 3.1348l-2.9504 4.4871q-3.688-3.2578-8.1752-3.2578-10.695 0-10.695 15.367 0 15.367 10.695 15.367 2.5816 0 4.733-0.922 2.1514-0.9835 4.3027-3.1963l3.2578 4.2412q-2.766 2.766-5.7165 3.9954-2.9504 1.2293-6.6385 1.2293z"
         id="path73" />
      <path
         d="m719.25 1069.1v-39.954h5.655v16.965h15.613v-16.965h5.655v39.954h-5.655v-17.703h-15.613v17.703z"
         id="path75" />
      <path
         d="m756.8 1069.1v-39.954h25.325v5.2862h-19.67v11.679h16.719v5.2861h-16.719v12.416h19.67v5.2862z"
         id="path77" />
      <path
         d="m787.6 1069.1 13.277-39.954h6.2697l13.277 39.954h-5.9623l-3.3192-10.204h-14.568l-3.3192 10.204zm10.634-15.49h11.249l-5.5935-17.457z"
         id="path79" />
      <path
         d="m836.84 1069.1v-34.668h-12.908v-5.2862h31.471v5.2862h-12.908v34.668z"
         id="path81" />
      <path
         d="m874.82 1069.9q-8.544 0-14.199-5.1017l3.0119-4.5486q4.5486 4.3027 11.371 4.3027 4.1183 0 6.2697-1.6596 2.2128-1.7211 2.2128-4.9789 0-2.4587-1.2908-3.7495-1.2294-1.3523-4.0568-2.0284l-6.4541-1.4752q-4.8559-1.1679-7.1917-3.6881-2.2743-2.5816-2.2743-6.9458 0-5.3476 3.6266-8.421 3.688-3.1348 10.081-3.1348 7.1917 0 12.601 4.1183l-2.766 4.61q-4.2412-3.3807-9.8962-3.3807-3.811 0-5.9009 1.5982-2.0284 1.5367-2.0284 4.3642 0 2.2743 1.2294 3.5036 1.2908 1.2293 4.1798 1.9055l6.4541 1.5367q4.7944 1.1678 7.0687 3.7495 2.3358 2.5816 2.3358 7.1916 0 5.778-3.7495 9.0357-3.7495 3.1963-10.634 3.1963z"
         id="path83" />
      <path
         d="m897.5 1069.1v-39.954h5.655v16.965h15.613v-16.965h5.655v39.954h-5.655v-17.703h-15.613v17.703z"
         id="path85" />
      <path
         d="m935.06 1069.1v-39.954h25.325v5.2862h-19.67v11.679h16.719v5.2861h-16.719v12.416h19.67v5.2862z"
         id="path87" />
      <path
         d="m970.71 1069.1v-39.954h25.325v5.2862h-19.67v11.679h16.719v5.2861h-16.719v12.416h19.67v5.2862z"
         id="path89" />
      <path
         d="m1015.1 1069.1v-34.668h-12.908v-5.2862h31.471v5.2862h-12.908v34.668z"
         id="path91" />
      <path
         d="m1053.1 1069.9q-8.544 0-14.199-5.1017l3.0119-4.5486q4.5486 4.3027 11.372 4.3027 4.1183 0 6.2696-1.6596 2.2128-1.7211 2.2128-4.9789 0-2.4587-1.2908-3.7495-1.2293-1.3523-4.0568-2.0284l-6.4541-1.4752q-4.8559-1.1679-7.1916-3.6881-2.2743-2.5816-2.2743-6.9458 0-5.3476 3.6265-8.421 3.6881-3.1348 10.081-3.1348 7.1916 0 12.601 4.1183l-2.7661 4.61q-4.2412-3.3807-9.8962-3.3807-3.811 0-5.9009 1.5982-2.0284 1.5367-2.0284 4.3642 0 2.2743 1.2294 3.5036 1.2908 1.2293 4.1797 1.9055l6.4541 1.5367q4.7945 1.1678 7.0687 3.7495 2.3358 2.5816 2.3358 7.1916 0 5.778-3.7495 9.0357-3.7495 3.1963-10.634 3.1963z"
         id="path93" />
      <path
         d="m1113.6 1069.1v-39.954h25.263v5.2862h-19.608v12.048h16.658v5.2247h-16.658v17.395z"
         id="path95" />
      <path
         d="m1160.5 1069.9q-7.499 0-11.371-5.2247-3.811-5.2862-3.811-15.49 0-10.265 3.811-15.49 3.8724-5.2247 11.371-5.2247t11.31 5.2247q3.8724 5.2247 3.8724 15.49 0 10.204-3.8724 15.49-3.811 5.2247-11.31 5.2247zm0-5.3476q9.4045 0 9.4045-15.367 0-15.367-9.4045-15.367t-9.4045 15.367q0 15.367 9.4045 15.367z"
         id="path97" />
      <path
         d="m1183.3 1069.1v-39.954h14.322q6.0853 0 9.2201 2.9504 3.1963 2.889 3.1963 8.4825 0 9.466-8.7283 11.126l10.265 17.395h-6.577l-9.8962-17.026h-6.1468v17.026zm5.6549-22.313h8.0523q3.8724 0 5.532-1.4137 1.7211-1.4753 1.7211-4.7945 0-3.2578-1.7211-4.6715-1.6596-1.4752-5.532-1.4752h-8.0523z"
         id="path99" />
      <path
         d="m1269.9 1069.9q-7.9907 0-12.232-5.2861-4.1797-5.3477-4.1797-15.428 0-10.081 4.1797-15.367 4.2413-5.3476 12.232-5.3476 3.3193 0 5.9624 0.9835 2.7045 0.9834 5.2247 3.1348l-2.9504 4.4871q-3.6881-3.2578-8.1752-3.2578-10.695 0-10.695 15.367 0 15.367 10.695 15.367 2.5816 0 4.733-0.922 2.1513-0.9835 4.3027-3.1963l3.2578 4.2412q-2.7661 2.766-5.7165 3.9954-2.9504 1.2293-6.6385 1.2293z"
         id="path101" />
      <path
         d="m1303.1 1069.9q-7.499 0-11.371-5.2247-3.811-5.2862-3.811-15.49 0-10.265 3.811-15.49 3.8724-5.2247 11.371-5.2247 7.4991 0 11.31 5.2247 3.8725 5.2247 3.8725 15.49 0 10.204-3.8725 15.49-3.8109 5.2247-11.31 5.2247zm0-5.3476q9.4045 0 9.4045-15.367 0-15.367-9.4045-15.367t-9.4045 15.367q0 15.367 9.4045 15.367z"
         id="path103" />
      <path
         d="m1325.3 1069.1v-39.954h6.7614l14.937 29.504v-29.504h5.2247v39.954h-5.5935l-16.104-31.84v31.84z"
         id="path105" />
      <path
         d="m1373.9 1069.9q-8.5439 0-14.199-5.1017l3.0119-4.5486q4.5485 4.3027 11.371 4.3027 4.1183 0 6.2697-1.6596 2.2128-1.7211 2.2128-4.9789 0-2.4587-1.2908-3.7495-1.2294-1.3523-4.0569-2.0284l-6.454-1.4752q-4.8559-1.1679-7.1917-3.6881-2.2743-2.5816-2.2743-6.9458 0-5.3476 3.6266-8.421 3.688-3.1348 10.081-3.1348 7.1917 0 12.601 4.1183l-2.766 4.61q-4.2413-3.3807-9.8962-3.3807-3.811 0-5.9009 1.5982-2.0284 1.5367-2.0284 4.3642 0 2.2743 1.2293 3.5036 1.2908 1.2293 4.1798 1.9055l6.4541 1.5367q4.7944 1.1678 7.0687 3.7495 2.3358 2.5816 2.3358 7.1916 0 5.778-3.7495 9.0357-3.7496 3.1963-10.634 3.1963z"
         id="path107" />
      <path
         d="m1410.1 1069.9q-7.499 0-11.371-5.2247-3.811-5.2862-3.811-15.49 0-10.265 3.811-15.49 3.8724-5.2247 11.371-5.2247 7.4991 0 11.31 5.2247 3.8725 5.2247 3.8725 15.49 0 10.204-3.8725 15.49-3.8109 5.2247-11.31 5.2247zm0-5.3476q9.4045 0 9.4045-15.367 0-15.367-9.4045-15.367-9.4044 0-9.4044 15.367 0 15.367 9.4044 15.367z"
         id="path109" />
      <path
         d="m1434.5 1069.1v-39.954h5.6549v34.668h19.608v5.2862z"
         id="path111" />
      <path
         d="m1469.8 1069.1v-39.954h25.324v5.2862h-19.67v11.679h16.719v5.2861h-16.719v12.416h19.67v5.2862z"
         id="path113" />
      <path
         d="m1555.1 1069.9q-7.9908 0-12.232-5.2861-4.1798-5.3477-4.1798-15.428 0-10.081 4.1798-15.367 4.2412-5.3476 12.232-5.3476 3.3192 0 5.9623 0.9835 2.7046 0.9834 5.2247 3.1348l-2.9504 4.4871q-3.6881-3.2578-8.1752-3.2578-10.695 0-10.695 15.367 0 15.367 10.695 15.367 2.5817 0 4.733-0.922 2.1514-0.9835 4.3027-3.1963l3.2578 4.2412q-2.766 2.766-5.7165 3.9954-2.9504 1.2293-6.6384 1.2293z"
         id="path115" />
      <path
         d="m1588.3 1069.9q-7.499 0-11.372-5.2247-3.8109-5.2862-3.8109-15.49 0-10.265 3.8109-15.49 3.8725-5.2247 11.372-5.2247t11.31 5.2247q3.8724 5.2247 3.8724 15.49 0 10.204-3.8724 15.49-3.811 5.2247-11.31 5.2247zm0-5.3476q9.4045 0 9.4045-15.367 0-15.367-9.4045-15.367t-9.4045 15.367q0 15.367 9.4045 15.367z"
         id="path117" />
      <path
         d="m1610 1069.1v-39.954h7.1302l6.8228 22.989 6.7614-22.989h7.3146v39.954h-5.2861v-32.086l-7.1303 24.095h-3.5036l-7.1302-24.095v32.086z"
         id="path119" />
      <path
         d="m1645.6 1069.1v-39.954h7.1302l6.8228 22.989 6.7614-22.989h7.3146v39.954h-5.2861v-32.086l-7.1302 24.095h-3.5037l-7.1302-24.095v32.086z"
         id="path121" />
      <path
         d="m1678.9 1069.1 13.277-39.954h6.2696l13.277 39.954h-5.9624l-3.3192-10.204h-14.568l-3.3193 10.204zm10.634-15.49h11.248l-5.5935-17.457z"
         id="path123" />
      <path
         d="m1717.5 1069.1v-39.954h6.7614l14.936 29.504v-29.504h5.2247v39.954h-5.5935l-16.104-31.84v31.84z"
         id="path125" />
      <path
         d="m1753.6 1069.1v-39.954h10.204q17.518 0 17.518 19.977 0 19.977-17.272 19.977zm5.6549-5.2862h4.1798q6.2697 0 9.1587-3.5651 2.9504-3.5651 2.9504-11.126 0-7.5605-2.9504-11.126-2.889-3.5651-9.1587-3.5651h-4.1798z"
         id="path127" />
      <path
         d="m1801.7 1069.9q-8.544 0-14.199-5.1017l3.0119-4.5486q4.5486 4.3027 11.372 4.3027 4.1183 0 6.2697-1.6596 2.2128-1.7211 2.2128-4.9789 0-2.4587-1.2908-3.7495-1.2294-1.3523-4.0569-2.0284l-6.454-1.4752q-4.856-1.1679-7.1917-3.6881-2.2743-2.5816-2.2743-6.9458 0-5.3476 3.6266-8.421 3.688-3.1348 10.081-3.1348 7.1917 0 12.601 4.1183l-2.766 4.61q-4.2413-3.3807-9.8963-3.3807-3.8109 0-5.9008 1.5982-2.0284 1.5367-2.0284 4.3642 0 2.2743 1.2293 3.5036 1.2908 1.2293 4.1798 1.9055l6.454 1.5367q4.7945 1.1678 7.0688 3.7495 2.3357 2.5816 2.3357 7.1916 0 5.778-3.7495 9.0357-3.7495 3.1963-10.634 3.1963z"
         id="path129" />
    </g>
  </g>
</svg>
