<svg xmlns="http://www.w3.org/2000/svg" xmlns:xlink="http://www.w3.org/1999/xlink" width="1430" height="911.82"><rect width="1430" height="911.82" rx="0" ry="0" class="a"/><svg height="911.82" viewBox="0 0 143 91.182" width="1430" xmlns="http://www.w3.org/2000/svg" xmlns:xlink="http://www.w3.org/1999/xlink"><style>@keyframes l{0%{transform:translateX(0)}10.5%{transform:translateX(-143px)}11.1%{transform:translateX(-572px)}29.2%{transform:translateX(-715px)}30.5%{transform:translateX(-858px)}32.8%{transform:translateX(-1001px)}35.8%{transform:translateX(-1144px)}38.9%{transform:translateX(-1287px)}40.2%{transform:translateX(-1430px)}42.2%{transform:translateX(-1573px)}43.5%{transform:translateX(-1716px)}52.1%{transform:translateX(-1859px)}52.2%{transform:translateX(-2145px)}52.8%{transform:translateX(-2717px)}53.3%{transform:translateX(-3146px)}to{transform:translateX(-3289px)}}.a{fill:#282d35}.c{fill:#a8cc8c;font-weight:700}.c,.d,.e,.f,.g{white-space:pre}.d{fill:#66c2cd;font-weight:700}.e,.f,.g{fill:#a8cc8c}.f,.g{fill:#b9bfca}.g{fill:#b9c0cb}.h{fill:#66c2cd}.h,.i,.n{white-space:pre}.i{fill:#66c2cd;text-decoration:underline}.n{fill:#e88388;font-weight:700}</style><g font-family="Monaco,Consolas,Menlo,'Bitstream Vera Sans Mono','Powerline Symbols',monospace" font-size="1.67"><defs><symbol id="1"><text y="1.67" class="c">➜</text><text x="3.006" y="1.67" class="d">~</text></symbol><symbol id="2"><text y="1.67" class="c">➜</text><text x="3.006" y="1.67" class="d">~</text><text x="5.01" y="1.67" class="e">tldr</text><text x="10.02" y="1.67" class="f">tar</text></symbol><symbol id="3"><text y="1.67" class="c">➜</text><text x="3.006" y="1.67" class="d">~</text><text x="5.01" y="1.67" class="e">tldr</text><text x="10.02" y="1.67" class="g">tar</text></symbol><symbol id="4"><text x="2.004" y="1.67" class="g">Archiving</text><text x="12.024" y="1.67" class="g">utility.</text></symbol><symbol id="5"><text x="2.004" y="1.67" class="g">Often</text><text x="8.016" y="1.67" class="g">combined</text><text x="17.034" y="1.67" class="g">with</text><text x="22.044" y="1.67" class="g">a</text><text x="24.048" y="1.67" class="g">compression</text><text x="36.072" y="1.67" class="g">method,</text><text x="44.088" y="1.67" class="g">such</text><text x="49.098" y="1.67" class="g">as</text><text x="52.104" y="1.67" class="g">gzip</text><text x="57.114" y="1.67" class="g">or</text><text x="60.12" y="1.67" class="g">bzip2.</text></symbol><symbol id="6"><text x="2.004" y="1.67" class="g">More</text><text x="7.014" y="1.67" class="g">information:</text><text x="20.04" y="1.67" class="g">&lt;https://www.gnu.org/software/tar&gt;.</text></symbol><symbol id="7"><text x="2.004" y="1.67" class="e">[c]reate</text><text x="11.022" y="1.67" class="e">an</text><text x="14.028" y="1.67" class="e">archive</text><text x="22.044" y="1.67" class="e">from</text><text x="27.054" y="1.67" class="e">[f]iles:</text></symbol><symbol id="8"><text x="6.012" y="1.67" class="h">tar</text><text x="10.02" y="1.67" class="h">cf</text><text x="13.026" y="1.67" class="i">target.tar</text><text x="24.048" y="1.67" class="i">file1</text><text x="30.06" y="1.67" class="i">file2</text><text x="36.072" y="1.67" class="i">file3</text></symbol><symbol id="9"><text x="2.004" y="1.67" class="e">[c]reate</text><text x="11.022" y="1.67" class="e">a</text><text x="13.026" y="1.67" class="e">g[z]ipped</text><text x="23.046" y="1.67" class="e">archive</text><text x="31.062" y="1.67" class="e">from</text><text x="36.072" y="1.67" class="e">[f]iles:</text></symbol><symbol id="10"><text x="6.012" y="1.67" class="h">tar</text><text x="10.02" y="1.67" class="h">czf</text><text x="14.028" y="1.67" class="i">target.tar.gz</text><text x="28.056" y="1.67" class="i">file1</text><text x="34.068" y="1.67" class="i">file2</text><text x="40.08" y="1.67" class="i">file3</text></symbol><symbol id="11"><text x="2.004" y="1.67" class="e">[c]reate</text><text x="11.022" y="1.67" class="e">a</text><text x="13.026" y="1.67" class="e">g[z]ipped</text><text x="23.046" y="1.67" class="e">archive</text><text x="31.062" y="1.67" class="e">from</text><text x="36.072" y="1.67" class="e">a</text><text x="38.076" y="1.67" class="e">directory</text><text x="48.096" y="1.67" class="e">using</text><text x="54.108" y="1.67" class="e">relative</text><text x="63.126" y="1.67" class="e">paths:</text></symbol><symbol id="12"><text x="6.012" y="1.67" class="h">tar</text><text x="10.02" y="1.67" class="h">czf</text><text x="14.028" y="1.67" class="i">target.tar.gz</text><text x="28.056" y="1.67" class="h">--directory=</text><text x="40.08" y="1.67" class="i">path/to/directory</text><text x="58.116" y="1.67" class="h">.</text></symbol><symbol id="13"><text x="2.004" y="1.67" class="e">E[x]tract</text><text x="12.024" y="1.67" class="e">a</text><text x="14.028" y="1.67" class="e">(compressed)</text><text x="27.054" y="1.67" class="e">archive</text><text x="35.07" y="1.67" class="e">[f]ile</text><text x="42.084" y="1.67" class="e">into</text><text x="47.094" y="1.67" class="e">the</text><text x="51.102" y="1.67" class="e">current</text><text x="59.118" y="1.67" class="e">directory:</text></symbol><symbol id="14"><text x="6.012" y="1.67" class="h">tar</text><text x="10.02" y="1.67" class="h">xf</text><text x="13.026" y="1.67" class="i">source.tar[.gz|.bz2|.xz]</text></symbol><symbol id="15"><text x="2.004" y="1.67" class="e">E[x]tract</text><text x="12.024" y="1.67" class="e">a</text><text x="14.028" y="1.67" class="e">(compressed)</text><text x="27.054" y="1.67" class="e">archive</text><text x="35.07" y="1.67" class="e">[f]ile</text><text x="42.084" y="1.67" class="e">into</text><text x="47.094" y="1.67" class="e">the</text><text x="51.102" y="1.67" class="e">target</text><text x="58.116" y="1.67" class="e">directory:</text></symbol><symbol id="16"><text x="6.012" y="1.67" class="h">tar</text><text x="10.02" y="1.67" class="h">xf</text><text x="13.026" y="1.67" class="i">source.tar[.gz|.bz2|.xz]</text><text x="38.076" y="1.67" class="h">--directory=</text><text x="50.1" y="1.67" class="i">directory</text></symbol><symbol id="17"><text x="2.004" y="1.67" class="e">[c]reate</text><text x="11.022" y="1.67" class="e">a</text><text x="13.026" y="1.67" class="e">compressed</text><text x="24.048" y="1.67" class="e">archive</text><text x="32.064" y="1.67" class="e">from</text><text x="37.074" y="1.67" class="e">[f]iles,</text><text x="46.092" y="1.67" class="e">using</text><text x="52.104" y="1.67" class="e">[a]rchive</text><text x="62.124" y="1.67" class="e">suffix</text><text x="69.138" y="1.67" class="e">to</text><text x="72.144" y="1.67" class="e">determine</text><text x="82.164" y="1.67" class="e">the</text><text x="86.172" y="1.67" class="e">compression</text><text x="98.196" y="1.67" class="e">program:</text></symbol><symbol id="18"><text x="6.012" y="1.67" class="h">tar</text><text x="10.02" y="1.67" class="h">caf</text><text x="14.028" y="1.67" class="i">target.tar.xz</text><text x="28.056" y="1.67" class="i">file1</text><text x="34.068" y="1.67" class="i">file2</text><text x="40.08" y="1.67" class="i">file3</text></symbol><symbol id="19"><text x="2.004" y="1.67" class="e">Lis[t]</text><text x="9.018" y="1.67" class="e">the</text><text x="13.026" y="1.67" class="e">contents</text><text x="22.044" y="1.67" class="e">of</text><text x="25.05" y="1.67" class="e">a</text><text x="27.054" y="1.67" class="e">tar</text><text x="31.062" y="1.67" class="e">[f]ile</text><text x="38.076" y="1.67" class="e">[v]erbosely:</text></symbol><symbol id="20"><text x="6.012" y="1.67" class="h">tar</text><text x="10.02" y="1.67" class="h">tvf</text><text x="14.028" y="1.67" class="i">source.tar</text></symbol><symbol id="21"><text x="2.004" y="1.67" class="e">E[x]tract</text><text x="12.024" y="1.67" class="e">[f]iles</text><text x="20.04" y="1.67" class="e">matching</text><text x="29.058" y="1.67" class="e">a</text><text x="31.062" y="1.67" class="e">pattern:</text></symbol><symbol id="22"><text x="6.012" y="1.67" class="h">tar</text><text x="10.02" y="1.67" class="h">xf</text><text x="13.026" y="1.67" class="i">source.tar</text><text x="24.048" y="1.67" class="h">--wildcards</text><text x="36.072" y="1.67" class="h">&quot;</text><text x="37.074" y="1.67" class="i">*.html</text><text x="43.086" y="1.67" class="h">&quot;</text></symbol><symbol id="a"><path fill="transparent" d="M0 0h143v42H0z"/></symbol><symbol id="b"><path fill="#6f7683" d="M0 0h1.102v2.171H0z"/></symbol></defs><path class="a" d="M0 0h143v91.182H0z"/><g style="animation-duration:7.13283s;animation-iteration-count:infinite;animation-name:l;animation-timing-function:steps(1,end)"><svg width="3432"><svg><use xlink:href="#a"/><use xlink:href="#b" x="-.004"/></svg><svg x="143"><use xlink:href="#a"/><use xlink:href="#b" x="-.004"/></svg><svg x="286"><use xlink:href="#a"/><use xlink:href="#b" x="4.996"/><use xlink:href="#1"/></svg><svg x="429"><use xlink:href="#a"/><use xlink:href="#b" x="4.996"/><use xlink:href="#1"/></svg><svg x="572"><use xlink:href="#a"/><use xlink:href="#b" x="4.996"/><use xlink:href="#1"/></svg><svg x="715"><use xlink:href="#a"/><use xlink:href="#b" x="5.996"/><text y="1.67" class="c">➜</text><text x="3.006" y="1.67" class="d">~</text><text x="5.01" y="1.67" class="n">t</text><text x="6.012" y="1.67" class="f">ldr</text><text x="10.02" y="1.67" class="f">tar</text></svg><svg x="858"><use xlink:href="#a"/><use xlink:href="#b" x="6.996"/><text y="1.67" class="c">➜</text><text x="3.006" y="1.67" class="d">~</text><text x="5.01" y="1.67" class="n">tl</text><text x="7.014" y="1.67" class="f">dr</text><text x="10.02" y="1.67" class="f">tar</text></svg><svg x="1001"><use xlink:href="#a"/><use xlink:href="#b" x="7.996"/><text y="1.67" class="c">➜</text><text x="3.006" y="1.67" class="d">~</text><text x="5.01" y="1.67" class="n">tld</text><text x="8.016" y="1.67" class="f">r</text><text x="10.02" y="1.67" class="f">tar</text></svg><svg x="1144"><use xlink:href="#a"/><use xlink:href="#b" x="8.996"/><use xlink:href="#2"/></svg><svg x="1287"><use xlink:href="#a"/><use xlink:href="#b" x="9.996"/><use xlink:href="#2"/></svg><svg x="1430"><use xlink:href="#a"/><use xlink:href="#b" x="10.996"/><text y="1.67" class="c">➜</text><text x="3.006" y="1.67" class="d">~</text><text x="5.01" y="1.67" class="e">tldr</text><text x="10.02" y="1.67" class="g">t</text><text x="11.022" y="1.67" class="f">ar</text></svg><svg x="1573"><use xlink:href="#a"/><use xlink:href="#b" x="11.996"/><text y="1.67" class="c">➜</text><text x="3.006" y="1.67" class="d">~</text><text x="5.01" y="1.67" class="e">tldr</text><text x="10.02" y="1.67" class="g">ta</text><text x="12.024" y="1.67" class="f">r</text></svg><svg x="1716"><use xlink:href="#a"/><use xlink:href="#b" x="12.996"/><use xlink:href="#3"/></svg><svg x="1859"><use xlink:href="#a"/><use xlink:href="#b" x="12.996"/><use xlink:href="#3"/></svg><svg x="2002"><use xlink:href="#a"/><use xlink:href="#b" x="-.004" y="2.146"/><use xlink:href="#3"/></svg><svg x="2145"><use xlink:href="#a"/><use xlink:href="#b" x="-.004" y="2.146"/><use xlink:href="#3"/></svg><svg x="2288"><use xlink:href="#a"/><use xlink:href="#b" x="42.996" y="56.421"/><use xlink:href="#3"/><use xlink:href="#4" y="4.342"/><use xlink:href="#5" y="6.513"/><use xlink:href="#6" y="8.684"/><use xlink:href="#7" y="13.026"/><use xlink:href="#8" y="17.368"/><use xlink:href="#9" y="21.71"/><use xlink:href="#10" y="26.052"/><use xlink:href="#11" y="30.394"/><use xlink:href="#12" y="34.736"/><use xlink:href="#13" y="39.078"/><use xlink:href="#14" y="43.42"/><use xlink:href="#15" y="47.762"/><use xlink:href="#16" y="52.104"/><text x="2.004" y="58.116" class="e">[c]reate</text><text x="11.022" y="58.116" class="e">a</text><text x="13.026" y="58.116" class="e">compressed</text><text x="24.048" y="58.116" class="e">archive</text><text x="32.064" y="58.116" class="e">from</text><text x="37.074" y="58.116" class="e">[f]ile</text></svg><svg x="2431"><use xlink:href="#a"/><use xlink:href="#b" x="-.004" y="82.473"/><use xlink:href="#3"/><use xlink:href="#4" y="4.342"/><use xlink:href="#5" y="6.513"/><use xlink:href="#6" y="8.684"/><use xlink:href="#7" y="13.026"/><use xlink:href="#8" y="17.368"/><use xlink:href="#9" y="21.71"/><use xlink:href="#10" y="26.052"/><use xlink:href="#11" y="30.394"/><use xlink:href="#12" y="34.736"/><use xlink:href="#13" y="39.078"/><use xlink:href="#14" y="43.42"/><use xlink:href="#15" y="47.762"/><use xlink:href="#16" y="52.104"/><use xlink:href="#17" y="56.446"/><use xlink:href="#18" y="60.788"/><use xlink:href="#19" y="65.13"/><use xlink:href="#20" y="69.472"/><use xlink:href="#21" y="73.814"/><use xlink:href="#22" y="78.156"/></svg><svg x="2574"><use xlink:href="#a"/><use xlink:href="#b" x="-.004" y="82.473"/><use xlink:href="#3"/><use xlink:href="#4" y="4.342"/><use xlink:href="#5" y="6.513"/><use xlink:href="#6" y="8.684"/><use xlink:href="#7" y="13.026"/><use xlink:href="#8" y="17.368"/><use xlink:href="#9" y="21.71"/><use xlink:href="#10" y="26.052"/><use xlink:href="#11" y="30.394"/><use xlink:href="#12" y="34.736"/><use xlink:href="#13" y="39.078"/><use xlink:href="#14" y="43.42"/><use xlink:href="#15" y="47.762"/><use xlink:href="#16" y="52.104"/><use xlink:href="#17" y="56.446"/><use xlink:href="#18" y="60.788"/><use xlink:href="#19" y="65.13"/><use xlink:href="#20" y="69.472"/><use xlink:href="#21" y="73.814"/><use xlink:href="#22" y="78.156"/></svg><svg x="2717"><use xlink:href="#a"/><use xlink:href="#b" x="-.004" y="82.473"/><use xlink:href="#3"/><use xlink:href="#4" y="4.342"/><use xlink:href="#5" y="6.513"/><use xlink:href="#6" y="8.684"/><use xlink:href="#7" y="13.026"/><use xlink:href="#8" y="17.368"/><use xlink:href="#9" y="21.71"/><use xlink:href="#10" y="26.052"/><use xlink:href="#11" y="30.394"/><use xlink:href="#12" y="34.736"/><use xlink:href="#13" y="39.078"/><use xlink:href="#14" y="43.42"/><use xlink:href="#15" y="47.762"/><use xlink:href="#16" y="52.104"/><use xlink:href="#17" y="56.446"/><use xlink:href="#18" y="60.788"/><use xlink:href="#19" y="65.13"/><use xlink:href="#20" y="69.472"/><use xlink:href="#21" y="73.814"/><use xlink:href="#22" y="78.156"/></svg><svg x="2860"><use xlink:href="#a"/><use xlink:href="#b" x="4.996" y="82.473"/><use xlink:href="#3"/><use xlink:href="#4" y="4.342"/><use xlink:href="#5" y="6.513"/><use xlink:href="#6" y="8.684"/><use xlink:href="#7" y="13.026"/><use xlink:href="#8" y="17.368"/><use xlink:href="#9" y="21.71"/><use xlink:href="#10" y="26.052"/><use xlink:href="#11" y="30.394"/><use xlink:href="#12" y="34.736"/><use xlink:href="#13" y="39.078"/><use xlink:href="#14" y="43.42"/><use xlink:href="#15" y="47.762"/><use xlink:href="#16" y="52.104"/><use xlink:href="#17" y="56.446"/><use xlink:href="#18" y="60.788"/><use xlink:href="#19" y="65.13"/><use xlink:href="#20" y="69.472"/><use xlink:href="#21" y="73.814"/><use xlink:href="#22" y="78.156"/><use xlink:href="#1" y="82.498"/></svg><svg x="3003"><use xlink:href="#a"/><use xlink:href="#b" x="4.996" y="82.473"/><use xlink:href="#3"/><use xlink:href="#4" y="4.342"/><use xlink:href="#5" y="6.513"/><use xlink:href="#6" y="8.684"/><use xlink:href="#7" y="13.026"/><use xlink:href="#8" y="17.368"/><use xlink:href="#9" y="21.71"/><use xlink:href="#10" y="26.052"/><use xlink:href="#11" y="30.394"/><use xlink:href="#12" y="34.736"/><use xlink:href="#13" y="39.078"/><use xlink:href="#14" y="43.42"/><use xlink:href="#15" y="47.762"/><use xlink:href="#16" y="52.104"/><use xlink:href="#17" y="56.446"/><use xlink:href="#18" y="60.788"/><use xlink:href="#19" y="65.13"/><use xlink:href="#20" y="69.472"/><use xlink:href="#21" y="73.814"/><use xlink:href="#22" y="78.156"/><use xlink:href="#1" y="82.498"/></svg><svg x="3146"><use xlink:href="#a"/><use xlink:href="#b" x="4.996" y="82.473"/><use xlink:href="#3"/><use xlink:href="#4" y="4.342"/><use xlink:href="#5" y="6.513"/><use xlink:href="#6" y="8.684"/><use xlink:href="#7" y="13.026"/><use xlink:href="#8" y="17.368"/><use xlink:href="#9" y="21.71"/><use xlink:href="#10" y="26.052"/><use xlink:href="#11" y="30.394"/><use xlink:href="#12" y="34.736"/><use xlink:href="#13" y="39.078"/><use xlink:href="#14" y="43.42"/><use xlink:href="#15" y="47.762"/><use xlink:href="#16" y="52.104"/><use xlink:href="#17" y="56.446"/><use xlink:href="#18" y="60.788"/><use xlink:href="#19" y="65.13"/><use xlink:href="#20" y="69.472"/><use xlink:href="#21" y="73.814"/><use xlink:href="#22" y="78.156"/><use xlink:href="#1" y="82.498"/></svg><svg x="3289"><use xlink:href="#a"/><use xlink:href="#b" x="-.004" y="84.644"/><use xlink:href="#3"/><use xlink:href="#4" y="4.342"/><use xlink:href="#5" y="6.513"/><use xlink:href="#6" y="8.684"/><use xlink:href="#7" y="13.026"/><use xlink:href="#8" y="17.368"/><use xlink:href="#9" y="21.71"/><use xlink:href="#10" y="26.052"/><use xlink:href="#11" y="30.394"/><use xlink:href="#12" y="34.736"/><use xlink:href="#13" y="39.078"/><use xlink:href="#14" y="43.42"/><use xlink:href="#15" y="47.762"/><use xlink:href="#16" y="52.104"/><use xlink:href="#17" y="56.446"/><use xlink:href="#18" y="60.788"/><use xlink:href="#19" y="65.13"/><use xlink:href="#20" y="69.472"/><use xlink:href="#21" y="73.814"/><use xlink:href="#22" y="78.156"/><use xlink:href="#1" y="82.498"/></svg></svg></g></g></svg></svg>